<mxfile host="app.diagrams.net" modified="2023-11-02T04:11:19.369Z" agent="Mozilla/5.0 (Macintosh; Intel Mac OS X 10_15_7) AppleWebKit/537.36 (KHTML, like Gecko) Chrome/119.0.0.0 Safari/537.36" version="22.0.8" etag="3Ex1mk29ebBwFCClmx2w" type="github">
  <diagram name="第 1 页" id="iQmNd3J7cloXvutHg1yN">
    <mxGraphModel>
      <root>
        <mxCell id="0" />
        <mxCell id="1" parent="0" />
      </root>
    </mxGraphModel>
  </diagram>
</mxfile>
